<svg height="512" viewBox="0 0 512 512" width="512" xmlns="http://www.w3.org/2000/svg"><path fill="#5B4386" d="M0 512h512V0H0v512"/><path d="M109.4 141.8h7.2c2.4 0 4-.4 5-1.2 1-.8 1.6-1.8 1.6-3 0-1.4-.5-2.3-1.5-3-1-.8-2.7-1.2-5-1.2h-7.3v8.4m0-16.8h6c2.3 0 4-.3 4.7-1 1-.6 1.4-1.5 1.4-2.7 0-1-.4-2-1.3-2.6-.7-.6-2.2-1-4.4-1h-6.2v7.3zm-13.2-16.2h25.3c4.2 0 7.5 1 9.7 3 2.3 2 3.4 4.5 3.4 7.4 0 2.5-.8 4.6-2.4 6.3-1 1.2-2.6 2.2-4.7 2.8 3 .8 5.3 2 6.7 4 1.5 2 2.2 4.2 2.2 7 0 2.4-.5 4.4-1.6 6.3-1 1.8-2.5 3.3-4.3 4.3-1 .6-2.8 1-5 1.4l-6 .6H96v-43.2zM153.2 136.4c0 2.8.5 5 1.6 6.3 1 1.4 2.5 2 4 2 1.8 0 3-.6 4.2-2 1-1.3 1.6-3.5 1.6-6.4 0-2.8-.5-5-1.6-6.3-1-1.3-2.4-2-4-2-1.7 0-3 .7-4.2 2-1 1.5-1.6 3.6-1.6 6.4m-12 0c0-4.6 1.6-8.5 4.8-11.6 3-3 7.4-4.6 12.8-4.6 6.2 0 10.8 1.8 14 5.4 2.5 3 3.8 6.5 3.8 10.7 0 4.8-1.6 8.7-4.7 11.7-3.3 3-7.6 4.6-13.2 4.6-5 0-9-1.3-12-3.8-3.7-3-5.6-7.2-5.6-12.3zM193.4 136.4c0 2.8.5 5 1.6 6.3 1 1.4 2.5 2 4 2 1.8 0 3-.6 4.2-2 1-1.3 1.6-3.5 1.6-6.4 0-2.8-.5-5-1.6-6.3-1-1.3-2.4-2-4-2-1.7 0-3 .7-4.2 2-1 1.5-1.6 3.6-1.6 6.4m-12 0c0-4.6 1.6-8.5 4.8-11.6 3-3 7.4-4.6 12.8-4.6 6.2 0 10.8 1.8 14 5.4 2.5 3 3.8 6.5 3.8 10.7 0 4.8-1.6 8.7-4.7 11.7-3 3-7.4 4.6-13 4.6-5 0-9-1.3-12-3.8-3.7-3-5.6-7.2-5.6-12.3zM237.2 108.8v12h6.6v9h-6.6V141c0 1.4 0 2.3.4 2.8.4.7 1 1 2 1s2.3-.3 4-.8l.8 7.7c-3 .6-5.8 1-8.4 1-3 0-5.2-.5-6.6-1.2-1.4-.8-2.5-2-3.2-3.5-.7-1.5-1-4-1-7.4v-10.8H221v-9h4.2V115l12-6.2M247.4 143.6l12-1.2c.4 1.3 1 2.2 1.8 2.8.8.5 1.8.8 3 .8 1.5 0 2.5-.3 3.3-1 .6-.5 1-1 1-2 0-.7-.3-1.3-.8-1.8-.4-.3-2-.7-4.7-1.2-4.2-.7-7-1.4-8.7-2-1.6-.6-3-1.6-4-3-1-1.6-1.7-3.2-1.7-5 0-2 .6-4 1.8-5.4 1.2-1.5 2.8-2.6 5-3.3s4.8-1 8.3-1c3.7 0 6.4.2 8.2.8 1.6.6 3 1.5 4.3 2.7 1 1.2 2 2.8 3 5l-12 1c-.4-1-.8-1.6-1.4-2-1-.6-2-1-3-1-1.3 0-2.2.3-2.8.8-.5.5-.8 1-.8 1.7s.4 1.3 1 1.7l5 1c4 .3 7 1 9 1.7 2 .8 3.4 2 4.5 3.4 1 1.6 1.4 3.2 1.4 5 0 1.7-.5 3.4-1.6 5-1 1.8-2.8 3-5 4-2.5 1-5.6 1.6-9.6 1.6-5.7 0-9.8-.8-12.2-2.3-2.4-1.6-4-3.8-4.6-6.7M300.2 108.8v12h6.6v9h-6.6V141c0 1.4 0 2.3.4 2.8.4.7 1 1 2 1s2.3-.3 4-.8l.8 7.7c-3 .6-5.8 1-8.4 1-3 0-5.2-.5-6.6-1.2-1.4-.8-2.5-2-3.2-3.5-.7-1.5-1-4-1-7.4v-10.8H284v-9h4.2V115l12-6.2M312.2 120.8h11.2v5.4c1-2.3 2.2-4 3.3-4.7 1.2-1 2.6-1.3 4.3-1.3 1.8 0 3.7.5 5.8 1.6l-3.7 9c-1.3-.7-2.5-1-3.3-1-1.6 0-2.8.6-3.6 2-1.2 1.7-1.8 5-1.8 10V152h-12v-31.2M361 137.6c-1.5.6-3 1-4.8 1.5-2.3.7-3.7 1.3-4.4 2-.6.5-1 1.2-1 2 0 1 .4 1.6 1 2.2.7.5 1.6.8 2.8.8 1.2 0 2.4-.3 3.5-1 1.2-.5 2-1.3 2.4-2.2.5-.8.7-2 .7-3.4v-1.8m-9-6l-12-1.2c.5-2 1-3.8 2-5 .7-1.2 2-2.3 3.4-3.2 1-.6 2.6-1 4.5-1.5s3.8-.5 6-.5c3.5 0 6.4.2 8.5.6 2 .4 4 1.2 5.4 2.5 1 1 1.7 2 2.2 3.7.6 1.6 1 3.2 1 4.6v13.8c0 1.4 0 2.6.2 3.4.2 1 .6 2 1.2 3.2H363l-.8-2-.4-2c-1.5 1.6-3 2.7-4.6 3.3-2 1-4.4 1.3-7.2 1.3-3.6 0-6.4-.8-8.3-2.5-2-1.6-2.8-3.7-2.8-6 0-2.5.6-4.4 2-5.8 1.3-1.5 3.8-2.6 7.5-3.4 4.3-.8 7.2-1.5 8.5-1.8 1.3-.4 2.6-.8 4-1.4 0-1.3-.2-2.3-.7-2.8-.5-.5-1.4-.8-2.8-.8-1.7 0-3 .3-3.8 1-.7.4-1.2 1.3-1.6 2.6zM392.2 136.6c0 2.8.5 4.8 1.6 6.2 1 1.3 2.3 2 3.8 2 1.4 0 2.6-.6 3.5-2 1-1.2 1.5-3.4 1.5-6.5 0-3-.5-5-1.5-6.3-1-1.3-2-2-3.5-2s-2.8.7-3.8 2c-1 1.4-1.5 3.6-1.5 6.6m-12 27.4v-43.2h11.2v4c1.6-1.6 3-2.8 4.3-3.4 1.7-.8 3.6-1.2 5.7-1.2 4.2 0 7.4 1.6 9.7 4.8 2.4 3 3.5 7 3.5 11.7 0 5.2-1.2 9-3.7 11.8-2.5 2.7-5.6 4-9.4 4-2 0-3.5-.2-5-.7-1.6-.6-3-1.4-4-2.5V164h-12z" fill="#FFF"/><path d="M512 365c-38.3-39.6-197-173-197-173l-148-11v219l130 112h215V365" fill="#010101" opacity=".2"/><path d="M208 305.6v57.8h42.7c16.6 0 27.2-.4 31.7-1.3 6.8-1 12.4-4 16.7-8.5s6.6-10.8 6.6-18.4c0-6.4-1.7-12-5-16.4-3.3-4.6-8-8-14.4-10-6.3-2-20-3-41-3h-37m0-88.4V269h30c17.8 0 29-.2 33.3-.7 7.8-1 14-3.6 18.5-8 4.5-4.5 6.7-10.3 6.7-17.6 0-7-2-12.5-5.8-16.8-4-4.5-9.7-7-17.4-8-4.5-.5-17.6-.8-39.2-.8H208zm-41.5-36.5h87c17 0 30 .7 38.3 2.2 8.5 1.3 16 4.4 22.7 9 6.7 4.6 12.3 10.8 16.7 18.5 4.5 7.8 6.7 16.4 6.7 26 0 10.4-2.5 20-7.6 28.6-5.2 8.7-12 15.2-21 19.6 12 3.8 21.4 10.4 27.8 19.7 6.5 9.3 9.7 20.2 9.7 32.7 0 10-2.3 19.5-7 28.8-4.4 9.4-10.7 16.8-18.5 22.4-8 5.6-17.6 9-29.2 10.3-7.2.8-24.7 1.3-52.4 1.5h-73.3V180.7z" fill="#FFF"/></svg>