<svg xmlns="http://www.w3.org/2000/svg" width="360" height="424" viewBox="0 0 360 424"><path fill="#FBA919" d="M68 81.4s5.6 22 6.4 29.5c1 7-14.7 23-14.7 32 0 8 3.3 22 21.3 30 18 7 20.5 26 20.5 37S95 244 95 244s-4.5 55 18 64.8c22 10 17 10 22 10s41 14.5 62 9c21.4-6 27-12.5 27-12.5s21.4 1.6 28-17.2c6.5-19 10.6-58 8-76-2.3-18-5.6-41 9-50 15-8 30.5-18 28-26-2.4-8-15.5-20-15.5-20s-3.3-20-.8-25c2.3-5 17-17 9-26s-23-9-23-9l-19 2s-32-28-73.7-27c-41.7 2-68 27-68 27s-14-5-26 0-14.8 0-12.3 14z"/><path fill="#E78724" d="M142.8 203.4s-16.3 25-28.2 42.5c-1.8 2 12 2 12 2l16.2-46zm7.7-51.4l-7.6 18.7c-3 7-14 10.5-14 10.5s5-6 5-21.3c0-7 8-9 8-9l7 1z"/><path fill="#E78724" d="M145.6 159s-10 11.8-28.7 5c-19-6.5-21-30.4-21-37 0-6.8 35 6.6 40 9.5s14 14.3 9 22.4zM75.3 31.4S92.3 28 104 37c11.4 9.2 14.7 16.4 14.7 16.4L99.4 68.7S90 64.3 87.2 52c-3-12.5-1-18.2-12-20.6z"/><path fill="#E78724" d="M140.5 124.4c-7.3-10.5-19.5-15-29.3-15.8-16.6-1.3-24.4 4.6-24.4 4.6s27 1 35 11.4c14.6 19 35.8 20.7 39.2 16.5-4 1-8.2-1-13-6-2.8-2-5-7-7.5-10zm-45.8 37.2s-30.2-10.4-24.5-21c5.8-10.4 1.2-16 1.2-16S54.6 137 59 150.3c2.5 8.2 7 14 31.2 25.5 11.7 21.6 2.4 60.5 3 60.7 1 .3 16.3-7.6 15.3-44-.3-11.3-1.2-26.5-13.8-31zM134.2 50l-30 15.4L111 69l-1 1.5 7 3.2S134 86 144.7 94C141 83.4 131 66.5 131 66.5s-3-7.7 3.2-16.3zm42 262c-39 0-52-19.8-52-19.8l6 14.8c2.3 6.4 26.8 26.3 46 26.3"/><path fill="#E78724" d="M128.4 279s3.6 21.7 18 21.7c12 0 15.7-18.4 15.7-22.3l-33 .5zm-23.8-33c1.3-3.6 5.7-17.7 7-30.6 2-15.5 1.2-38 1.2-38s-3.8 14.8-7 17.2c-3.5 2.3-9.7 18.6-9.7 18.6l-4 32.2c5 1 8-1.7 14 .5zM70 150.2s8-3 10.5-20.6c2.4-17.6-2.8-33-2.8-33S78 121 75.3 126c-3 4.8-5.3 6.2-8.6 12.4-3.4 6.2 1.4 10 3.3 12z"/><path fill="#FDC168" d="M79.7 35.6l-1.7-1c-4.8 0 1.7 1 1.7 1z"/><path fill="#FBA919" d="M140.8 44.8s-7.6-1.2-11.5-7c-3.8-5.7-14.6-17-31.8-17.3-17.3 0-34.3 4.6-34.3 4.6L78 35h9c18.6.8 21.5 19.3 21.5 19.3l66-9"/><path fill="#FFF" d="M147.2 147s-9 9-22.6 6c-13.7-3-22-9-22.6-19.4-.7-10.5 2.8-14.7 2.8-14.7s15.3 4 22.6 11c7.3 6 12.8 16 19.8 17z"/><path fill="#C9C9C9" d="M136.4 143.8s-7.8 3.5-16.4.6c-11.3-3.8-12-15.5-12-15.5s-7 20 12.5 24c15.6 3 24.8-6 24.8-6l-9-4z"/><path fill="#463014" d="M142 40.5c-1-17.4 13.3-31.3 18.3-32 .3 3-.3 14.6 4.7 18 1.4-9.3 6.3-19.7 25.6-26.5-4.2 11-.6 20 1 24.4 13.3-12 22-10 22-10s-9 15.8-5.4 26c-26.4-2-66.2 3-66.3 0zM86 67c-6.4-5-1.7-10-2.2-16-.3-3-.6-6-1.6-7.7-5.8-9.2-19.5-12-19.6-12L56 30l4.4-5c.6-.5 18-17.2 45-8.5 19 6 33 26.8 33.4 27.6l-9.4 5c-.2 0-11.2-19-27.4-25-13-4-25.2 0-30.4 3 5.5 2 12.7 6 17 13 2 3 2.4 7 2.8 11 .4 5 .8 10 4.6 14l-10 3zm-17 76.4s8-9.8 10.3-29c1-7.5-.7-22.4-3.3-28 .4 14-3 28-3 28s-2.5 26.2-4 29z"/><path fill="#463014" d="M111 57.2s-2.7-11.2-9.7-16.8c-10-8-22-3.7-22.2-3.6l-1-5.5c1-.2 15-4.6 28 4.4S121 53 121 54l-8 3zm-17 79.2s-4.2-6-3.5-12.5c.4-4 2-7 4.6-8 5-2 8 3 8 3s-7 1-8 17z"/><path fill="#463014" d="M139.7 145.5l.3.5s-13 9.7-26.3-.2c-7.2-5.3-6.5-18.4-4.3-24 5.7 1.3 10.5 3.7 14.5 6.4l-10-8-6-1.6-11-4c0 1-5 20.2 7 33.3 5 5 30 18 41-4l-7 1z"/><path fill="#463014" d="M138.5 147c7.3 11 25.8 4.7 25.4-7 0 0-13 6.7-24-5.8-7-7.3-27-27.5-55-20.8 19 4.2 44 21.6 52 33.5z"/><path fill="#463014" d="M83.7 178.3c1.8 1 8 7.5 8 17 0 5-.5 29-3 44 3.7 2.3 6.2 2.8 9.8 5 1.8-17 3-41.8 2.5-52-.7-11.3-6.8-19-12.5-22.2l-5.5-3c-9.7-5-19.8-10-19.8-20 0-7 2.8-9 5.8-12h.4c2-1 4.2-3 5.5-6 3-8 4-29 0-34-3-3-8-12-7-18 0-2 2-4 4-5s6-1 10-1c8 0 17 3 21 4 16 6 36 21 42 25l4 3-3-4s-14-24-40-32c-5-1-15-4-25-4-6 0-11 1-15 3-5 3-8 7-9 11-3 12 7 26 8 26 1 3 2 19-1 25l-3 3-1 1c-4 3-10 8-10 19 0 14 14 22 26 28l5 3z"/><path fill="#463014" d="M86 67c-6.4-5-1.7-10-2.2-16-.3-3-.6-6-1.6-7.7-5.8-9.2-19.5-12-19.6-12L56 30l4.4-5c.6-.5 18-17.2 45-8.5 19 6 33 26.8 33.4 27.6l-9.4 5c-.2 0-11.2-19-27.4-25-13-4-25.2 0-30.4 3 5.5 2 12.7 6 17 13 2 3 2.4 7 2.8 11 .4 5 .8 10 4.6 14l-10 3z"/><path fill="#463014" d="M85.7 68.2l-.5-.3c-4.6-4-3.8-8-3-12 .4-2 .8-4 .6-6-.3-3-.5-6-1.4-8-5.4-8-19-11-19-11l-8-2 5.3-6S71 13 90 13c5 0 10.4 1 15.7 2.6 19.7 6.4 33.8 27.8 34 28l.5 1-11.2 5.2-.4-.7c-1.3-2-12-19-27-24-3.6-1-7.4-2-11.4-2-7 0-13 2-16 3 5.2 3 11.5 7 15.5 13 2 4 2.5 8 2.8 12 .4 5 .8 10 4.4 13l1 1-12 4z"/><path fill="#463014" d="M111 57.2s-2.7-11.2-9.7-16.8c-10-8-22-3.7-22.2-3.6l-1-5.5c1-.2 15-4.6 28 4.4S121 53 121 54l-8 3z"/><path fill="#463014" d="M110.2 58.5l-.2-1c0-.2-2.6-11-9.3-16.3-3.8-3-8.5-4.6-13.8-4.6-5 0-8 1-8 1l-1 .4-3-7.3 1-.3s4-1.3 9-1.3c7 0 13 2 18 6 13 10 15 18 15 19v1l-10 4zM87 34.5c5.6 0 10.8 2 15 5.2 6 4.7 8.7 13.2 9.5 16.2l6.5-3c-.5-3-3-10-14-17-5-3-11-5-17.7-5-3.6 0-6.4 0-7.8 1l1.2 3c1.4-1 4-1 7.2-1zm58.7 261c-2.8 0-5.7-1-7.7-2.8-1.5-1.3-6.7-6-9-11.8-.8-3-.6-4 .6-6 1-1 2.6-2 6.2-2H155c2.8 0 4.8 0 6 2 1.3 1 1 3 .5 4-.7 1-3.7 7-8.6 12-2 2-5 3-8 3zm3-148l-10.2-.6s2.6 4 4.3 10c2 6-1.8 16-1.8 16s13.6-16 7.7-27zm-12.7 175c-36.3-3-49-37-49-44.3h9.4-4.7 4.7c0 3 9.7 32.4 40.3 34.7l-.7 9z"/><path fill="#FFF" d="M125.8 261c-.6-3.3-.6-6.4 0-9.4-2.7-2-7.7-2.8-11.4-4-3-2-18.5 2-29.8-11.7-14-18-11-28-11-28-3.7 4-7.2 2-12.7 21-6 19 2 32 17 45 7 6 17 8 26 9-3-3 5-3 10-5-1-5 0-9 3-12 2-2 4-4 7-5v-2z"/><path fill="#C9C9C9" d="M114.8 279l-.8-2.7c-.2-1-1.5-4 0-.6l-.8-2.6c-24.5 0-45.8-16-41.6-52-3.2-4-7.7 9-7.7 9s-13 35 19 49c10 5 19 8 22 7 4 1 8-2 10-4-1 0-1-1-1-2z"/><path fill="#463014" d="M125.3 256c0-3 .7-6 2-9 .2 0 .3-.2.5-.4-9.5 0-20.3-1-29.6-4.7-10-5-22.8-18-25-35 0 0-19 14-13.5 46 5.3 29 30 39 58.4 41 0-1-3-7-2-11-16 1-34-5-42-20-8-13-5-36-2-39 8 25 37 30 55 30z"/><path fill="#463014" d="M128.3 238c-5 15-15.5 27-15.5 27s14.3-.7 15-3.2c.7-2 13-30.8 17.8-64.6-4.5 7.3-17 39.4-17.3 40.7z"/><path fill="#E78724" d="M209.4 203.4s16.2 25 28 42.5c2 2-11.8 2-11.8 2l-16.2-45zm-7.7-51.4l7.5 18.7c3 7 14 10.5 14 10.5s-5.7-6-5.7-21.3c0-7-8.3-9-8.3-9l-7.5 1z"/><path fill="#E78724" d="M206.6 159s10 11.8 28.6 5 20.6-30.4 20.6-37c0-6.8-35.4 6.6-40 9.5-5 2.8-14 14.3-9.2 22.4zM277 31.4S259.6 28 248.2 37c-11.5 9.2-14.8 16.4-14.8 16.4l19.3 15.3S262 64.3 265 52c2.8-12.5 1-18.2 12-20.6z"/><path fill="#E78724" d="M211.6 124.4c7.4-10.5 19.6-15 29.3-15.8 16-1.3 24 4.6 24 4.6s-27 1-35 11.4c-15 19-36 20.7-40 16.5 4 1 8-1 13-6 3-2 5-7 7-10zm46 37.2s30-10.4 24.3-21c-6-10.4-2-16-2-16s17 12.4 12 25.8c-3 8.2-7 14-32 25.5-12 21-3 60-3 60-1 0-17-8-16-44 0-12 1-27 14-31zM218 50l30 15.4-7 3.5 1 1-7 3-27.3 21c3.3-11 13.7-28 13.7-28s3-8-3.3-17zm-42 262c38.8 0 52-19.8 52-19.8l-6 14.8c-2.4 6.4-27 26.3-46 26.3"/><path fill="#E78724" d="M223.7 279s-3.5 21.7-17.8 21.7c-13 0-16-18.4-16-22.3l33 .5zm24-33c-1.4-3.6-6-17.7-7.3-30.6-1.7-15.5-1-38-1-38s3.7 14.8 7 17.2c3.4 2.3 9.6 18.6 9.6 18.6s3.4 24 5 32.2c-4.4 1-8-1.7-13.4.5zm34.5-95.8s-8.2-3-10.5-20.6c-2.4-17.6 2.8-33 2.8-33S274 121 277 126c2.8 4.8 5.2 6.2 8.5 12.4s-1.4 10-3.3 12z"/><path fill="#FDC168" d="M272.5 35.6l1.6-1c5 0-1 1-1 1z"/><path fill="#FBA919" d="M211.4 44.8s7.6-1.2 11.4-7c4-5.7 14.7-17 32-17.3C272 20.5 289 25 289 25l-15 9.5h-8.8c-18.6.8-21.5 19.3-21.5 19.3l-66-9"/><path fill="#FFF" d="M205 147s9 9 22.6 6c13.7-3 22-9 22.6-19.4.6-10.5-3-14.7-3-14.7s-15 4-22.5 11-12.7 16-19.7 17z"/><path fill="#C9C9C9" d="M215.8 143.8s7.7 3.5 16.4.6c11.3-3.8 12-15.5 12-15.5s7 20-12.5 24c-15.6 3-24.8-6-24.8-6l8-4z"/><path fill="#463014" d="M266.3 67c6.3-5 1.6-10 2-16 .4-3 .6-6 1.7-7.7 5.8-9.2 19.5-12 19.6-12L296 30l-4.2-5c-.6-.5-18-17.2-45-8.5-19 6-33 26.8-33.5 27.6l9.5 5s11.2-19 27.4-25c13-4 25.2 0 30.4 3-5.5 2-12.7 6-17 13-2 3-2.5 8-2.8 12-.4 5-.8 10-4.7 14l11 3zm16.7 76.4s-7.8-9.8-10-29c-1-7.5.6-22.4 3.2-28-.5 14 3 28 3 28s2.5 26.2 4 29z"/><path fill="#463014" d="M241.3 57.2s2.5-11.2 9.6-16.8c9-8 22-3.7 22-3.6l2-5.5c-1-.2-15-4.6-28 4.4S232 53 232 54l8.2 3zm17 79.2s4-6 3.3-12.5c-.4-4-2-7-4.5-8-5-2-7 3-7 3s7 1 9 17z"/><path fill="#463014" d="M212.5 145.5l-.3.5s13 9.7 26.3-.2c7-5.3 6.5-18.4 4.3-24-5.7 1.3-10.5 3.7-14.5 6.4 5-4.6 9.5-8 9.5-8l5.8-1.6 11.2-4c.2 1 4.3 20.2-7.6 33.3-5.2 5-29.8 18-41.5-4l6.8 1z"/><path fill="#463014" d="M213.7 147c-7.3 11-25.8 4.7-25.5-7 0 0 12.4 6.7 23.3-5.8 6.3-7.3 26.7-27.5 54.3-20.8-19 4.2-44.3 21.6-52 33.5z"/><path fill="#463014" d="M268.4 178.3c-1.7 1-8 7.5-8 17 0 5 .5 29 3 44-3.7 2.3-6.2 2.8-9.7 5-1.8-17-3-41.8-2.5-52 .7-11.3 6.8-19 12.5-22.2l5.5-3c9.7-5 19.7-10 19.7-20 0-7-3-9-6-12h-1c-2-1-4-3-6-6-4-8-5-29 0-34 2-2 8-11 6-17-1-2-2-4-5-5s-6-2-10-2c-8 0-17 3-22 4-16 5-36 20-42 25l-4 3 3-3s14-24 40-32c5-1 15-4 24-4 5 0 10 1 14 3s8 6 9 11c3 12-8 25-8 25-2 2-2 18 1 25 0 1 1 2 2 3l1.2 1c4 3 10 8 10 18.7 0 14.4-15 22-26.7 28.5l-5.7 3z"/><path fill="#463014" d="M251 65.4c-2.4-4-8.4-11.6-22-18.3-15.4-7-33.2-11-53-11-19.6 0-37.4 4-52.7 11-13.8 7-19.7 15-22 19l-1 2 11.7 2h.6c0-1 1.7-5 14.8-11 14-6 30.4-10 48.7-10 19 0 35 3 49 10 13 6 15 10 15 11v1l1 1 12-2-1-1z"/><path fill="#463014" d="M266.3 67c6.3-5 1.6-10 2-16 .4-3 .6-6 1.7-7.7 5.8-9.2 19.5-12 19.6-12L296 30l-4.2-5c-.6-.5-18-17.2-45-8.5-19 6-33 26.8-33.5 27.6l9.5 5s11.2-19 27.4-25c13-4 25.2 0 30.4 3-5.5 2-12.7 6-17 13-2 3-2.5 8-2.8 12-.4 5-.8 10-4.7 14l11 3z"/><path fill="#463014" d="M254.2 64l1.3-1c3.5-3 4-7.6 4.4-12.6 0-4 0-8.3 2-11.7 4-6.3 10-10.2 15-12.6-3-1-9-3-16-3-4 0-8 1-12 2-15 5-26 23-27 25l-1 1-11-5v-1s14-21 34-28c5-1 10-2 15-2 19 0 30 12 30 12l5 6-8 2s-13 2-18 11c-1 2-2 5-2 8 0 2 0 4 1 6 1 3 2 7-3 11l-12-4z"/><path fill="#463014" d="M241.3 57.2s2.5-11.2 9.6-16.8c9-8 22-3.7 22-3.6l2-5.5c-1-.2-15-4.6-28 4.4S232 53 232 54l8.2 3z"/><path fill="#463014" d="M232 54.5v-.8c.2-1 1.8-9.5 15-18.7 5.5-4 12-6 18.8-6 5.3 0 9 1.3 9.3 1.4l1 .3-2 7.3-1-.3c0-.2-3-1-7-1-5 0-10 1.4-13 4.5-7 5.3-9 16-9 16.2v1l-10-4zm40.5-19l1-3.5c-1.2-.4-4-1-7.7-1-6.5 0-12.5 2-17.7 5.5-10 7.5-13 14.5-14 16.8l7 2.7c1-3 4-12 10-16.6 4-3.3 10-5 15-5 3 0 6 .5 7 1zm-73.3 257c-5-5.2-7.8-11-8.5-12.6-.4-1-.8-3 .6-5 1-1 3-2 5.8-2h20c4 0 6 1 7 2s2 3 1 5c-2 6-7 10-9 12-2 1-4 2-7 2s-5-1-7-3zm4.3-145l10.2-.6s-2.6 4-4.3 10c-2 6 1.7 16 1.7 16s-13-16-7-27z"/><path fill="#E78724" d="M176 111.2c-6.4 0-15-.2-21.2-4.7 0 0 8.3 14.5 21.3 14.5v-1.8 1.8c13 0 22-14.5 22-14.5-6 4.5-15 4.7-21 4.7z"/><path fill="#463014" d="M194 111c-6.6 4-12.4 5.4-18 5.6-5.5-.2-11.3-1.5-17.8-5.5 0 0 9.5 12 17.8 12 8.5 0 18-11 18-11zm22.2 211.4l-.7-9.5c30.5-3 40.2-32 40.2-35h9.5c0 7-12.8 41-49 44z"/><path fill="#FFF" d="M226.4 261c.6-3.3.6-6.4 0-9.4 2.7-2 7.6-2.8 11.3-4 3-2 18.6 2 29.8-11.7 14-18 11.2-28 11.2-28 3.6 4 7 2 12.6 21 5.5 18-2.6 31-17.7 45-7 6-17.2 8-26 9 3-3-5-3-10.3-5 .4-5-.3-9-3.6-12-2-2-4.5-4-7-5l-.5-1c0-1 0-1 .2-1z"/><path fill="#C9C9C9" d="M237.3 279c.4-.8.6-1.7.8-2.7 1-1 2-4 0-.6 1-.8 1-1.7 1-2.6 25 0 46-16 42-52 3-4 8 9 8 9s12 36-19 50c-10 5-20 8-22 7-4 1-8-2-10-4l1-2z"/><path fill="#463014" d="M226.8 256c0-3-.6-6-2-9-.2 0-.3-.2-.4-.4 9.4 0 20.3-1 29.5-4.7 10-5 22-18 25-35 0 0 19 14 13 46-6 29-30 39-59 41 0-1 3-7 2-11 16 1 34-5 43-20 8-13 5-36 2-39-8 25-37 30-55 30z"/><path fill="#463014" d="M238.3 263.3c-3.4-3.6-9.6-8-24-8H138c-14.3 0-20.5 4.4-24 8-4.8 5.4-5.6 12.8-2.2 22 9 24.6 21.8 49.7 64.4 49.7 42.8 0 55.5-25 64.5-49.7 3.5-9.2 2.7-16.6-2.2-22zm-6.7 20.3c-4.3 12.3-16 42.3-55.5 42.3s-51-30-55-43c-2-7-2-12 1-15 2-3 7-5 16-5h77c10 0 15 2 16 4 3 3 3 8 1 15z"/><path fill="#463014" d="M224 238c5 15 15.4 27 15.4 27s-14.4-.7-15-3.2c-.7-2-13-30.8-17.8-64.6 4.5 7.3 16.8 39.4 17.3 40.7zM62.2 357.7l-6.3-3c-3-.8-5-1.5-8-2-3-.4-6-.6-9-.6-6 0-12 1-16 3-5 2-9 5-13 8-4 4-6 7-8 12-1 3-2 8-2 13s1 10 3 15 4 8 8 11c3 3 7 6 12 8 4 2 9 3 15 3h8l7-1c3 0 5-1 7-2s4-3 6-4c1 0 1-1 1-1v-29c0-1-1-1-2-1H40c-.5 0-1 1-1 2v12c0 .7 1 1 1.6 1h9v8l-4 1-6 .6c-3 0-5.7 0-8-1-2.5-1-4.6-2.3-6-4-2-2-3.4-4-4.4-6.7s-1.3-6-1.3-9 0-6 1-8.6 2-5 4-6c1-2 3-3.5 6-4 2-1 5-2 8-2h5l3 1 3 2 8 4c1 1 1 1 2 0l7-10.3v-2c-2-1.3-3-2.6-5-4zm63.8 40c-.8-1.3-1.7-2.3-2.8-3.2l-1-.8c1.4-.6 2.8-1.4 4-2.3 2-1.4 3.5-3 5-4.8 1.2-1.7 2.2-3.7 2.8-5.8.7-2 1-4.3 1-6.6 0-3-.5-6-1.6-8.5-1.2-2.7-3-5-5.5-7-3-1.8-6-3.3-10-4.3s-9-1.6-14-1.6H81c-.7 0-1.3.6-1.3 1.3v68c0 1 0 2 1 2h17c.4 0 1 0 1-1v-24h3c1.3 0 2 1 2.3 1l1.5 2 12 20c1.4 3 4 4 7 4H140c.8 0 1.3 0 1.3-1 0 0 0-1-.4-1l-15-24zM115.5 379c-.4 1.2-1 2.2-2 3-.8.8-2 1.5-3.4 2-1 .5-3 .7-5 .7h-5V367h6c4 0 7 1 9 2.4s3 3.4 3 6v3.7zm94.8-26.2h-16.8c-.7 0-1.3.6-1.3 1.3v41c0 3-.3 5-1 6-.5 2-1.3 3-2.4 5-1 1-2.5 2-4 3-3.3 2-8 2-11.2 0-1.5 0-3-1-4-2s-2-3-2.5-4v-46s0-1-1-1h-17s-1 1-1 2v40c0 4 1 8 2 12 2 4 4 7 7 9s6 5 10 6c4 2 9 2 14 2s10 0 14-2c4-1 8-3 11-6s5-6 7-9c2-4 2-8 2-12v-41c0-.2 0-1-1-1zm79 0h-15c-.6 0-1 .6-1 1.3v40l-31.8-38-1.4-1-1-1h-12s-1 1-1 2v68c0 1 1 2 1 2h15c1 0 2 0 2-1v-40l31 38 3 3s3 1 4 1h9c1 0 1 0 1-1v-68c0-.2 0-1-1-1zm69.2 0H301c-.6 0-1.2.6-1.2 1.3v13c0 1 .6 2 1.3 2h20v54c0 1 1 2 2 2h16c1 0 2 0 2-1v-55h19c1 0 1 0 1-1v-13s0-1-1-1z"/></svg>