<svg height="512" viewBox="0 0 512 512" width="512" xmlns="http://www.w3.org/2000/svg"><path fill="#FFAA2B" d="M7 12h499v486H7z"/><path fill="#3B3323" d="M45 51h422v408H45z"/><path d="M364 148c1 .7-28 31-28 31l37.4 29.5L339 234l-86-83-41 10-26 83-47 113 144 102h184V231l-103-83zM45 51h422v14H45z" opacity=".3"/><path d="M196 298.6L178.3 357h-38.8l66-206h48l66.8 206H280l-18.6-58.4H196zm59-28.5l-16.2-50.4c-4-12.5-7.4-26.5-10.4-38.5h-.6c-3 12-6 26.3-9.8 38.5L202 270h53zm120.3-103.3c0 11.3-8.2 20-21.4 20-12.8 0-21-8.7-21-20 0-11.6 8.5-20.5 21-20.5 13 0 21 9 21 20.7zm-40 190.3V208h38v149h-38z" fill="#FFAA2B"/></svg>