<svg height="512" viewBox="0 0 512 512" width="512" xmlns="http://www.w3.org/2000/svg"><path d="M512 432c0 44.2-35.8 80-80 80H80c-44.2 0-80-35.8-80-80V80C0 35.8 35.8 0 80 0h352c44.2 0 80 35.8 80 80v352z" fill="#0769AD"/><path d="M512 432V301L398 187l-11 16.4.5.3-3.3 1.2-98.8-99-2.3 3h1l-3 4-8 27v28l-49-48-2 3-8 10-7 19-5 51-55-55-1-1-18 24-10 52 63 115-22 22 152 152h121c45 0 80-36 80-80z" fill="#05568D"/><g fill="#FFF"><path d="M223.2 120c-12.8 22.5-14.4 50-7 74.7 7 23.7 21.8 44.6 40.5 60 .4.2.8.5 1.2 1l5 4 2 1.7 1 1 4 2.4 1 .4 3 2 1 .8c1 .4 1 1 2 1.3 1 1 3 1.7 5 2.5l1 .5 4 1.8 2 1 4 2 1 1 5 2c42 12 82-3 103-34 0 0-23 79-122 62-2 0-4-1-6-1h-1l-4-1-2-1-5-2h-1l-5-2-3-1-1-.2-4-2-1-.2c-1.5-1-2.8-1-4-2l-1-.4c-1-.2-2-1-2.8-1.3l-5-5-1-1-5.5-5-4.5-4.5c0-.6 0-1-1-1.4-1-1.6-3-3-4-4.7-4-3-7-8-10-12.4-3-5-6-9.4-8-15-15-30-16-68 3-97l15.5-23z"/><path d="M145.8 149.2c-23.4 47-13 104 16.4 145.5 1 1.5 2 3 3.2 4.5l1 1.3 3 3.6c.2 1 .5 1 1 2l3.8 5 4 5 1.2 2 3.2 4 1.2 1 4.4 4 4.6 4 1.5 2 3.3 3 1.6 2 3.7 3 1 1 4 2.6 1 1 5 3.6 1 1 4 2c0 .5 1 1 2 1l3 2 1 1 4 2 1 .5 5 2.5 1 .4 5 2c3 1 5 1.4 6.2 2l1.6.5 6 2c53 12.4 108.4 1.4 140-41 0 0-37.7 104-166 80-2-.4-4-1-6-2h-1l-5.8-2-6-2-1.7-1-5-2h-1l-4-2-1-1-3.6-2-2.6-1-4-2-1.4-1c-2-1-3-2-5-3.6l-1-1-3.7-2.4-2-1-3.7-2.3-1.8-2-3-2-2-1-4-3.4-1-.5-4.5-4-1-1-3-3.6-1-1-4-4-4-4.3-1-1-3-3-1-1.6-3-4-.7-.3-3.6-5-1-1.6-2-4-1-2-2-3.4-1-2-1-1-1-2-1-3c-20-42-23.6-93 3-133l21.3-28zM285.3 106c-15.6 29.4-.7 65.4 23.3 84.4 4.2 3.3 8.7 6 13.5 8.5l8 3c2 1 5 1 7 2 27 7 49 2 62-17-4 6-18 46-73 35l-3-1-1-1-2-1c-20-8-37-24-45-44-8-19-7-41 5-58l9-12z"/></g></svg>