<svg id="Lager_1" viewBox="0 0 128 128" xmlns="http://www.w3.org/2000/svg"><style>.st0{fill:#214674;} .st1{fill:#F6F6F6;}</style><circle class="st0" cx="64" cy="64" r="50"/><path class="st1" d="M75.3 63.4c4 1.4 6 3.8 6 7.3 0 2.3-.7 4-2.4 5.4-2 2-4 3-8 3-3 0-6-1-8-2-.8 0-1-.2-1-1s.3-1 .6-2l1-2H65c2 1 4 1.8 5.6 1.8 1 0 1.5 0 2-.4l.7-1c0-1-.5-2-2-2l-2.4-1c-3.8-2-5.6-4-5.6-7.5 0-2.3.6-4 2.2-5.4 1.6-1 3.7-2.3 6.4-2.3 1.4 0 3 0 4.5.6 2 .2 3 1 4 1.5.7 0 1 .4 1 1 0 .5 0 1-.5 2L80 61c-.2.2-.6.3-1 0-2.2-1-4-1.6-6-1.6-.3 0-1 0-1 .5-.3 0-.5 0-.5 1 0 0 .4 1 1.5 1l2.5 1z" id="path21_1_"/><path class="st1" d="M94 67c-1.4 1-2 2.7-2 5v7.8c0 2.6-1 4.6-2.7 6-1.8 1.4-4 2-6.3 2h-1.4v-3.2c0-.4.2-.7.6-.8 1-.3 1.3-.7 1.7-1 0-1 1-2.3 1-4v-6.5c0-2.2 0-4 1-5s1-1.8 3-2.6V63c-2-1-3-2-4-3-.8-1-.8-2.2-.8-4v-6c0-1.8-.6-3-1.4-4-.3-.3-.8-.7-1.7-1-.3 0-.5-.4-.5-.8v-2c0-.6.4-1 1-1h3c1.5 0 3 .8 4 1.7 1 1 2 2 2.5 3.4.3 1 .3 1.8.3 2.7v6c0 2.7 1 4.5 2 5.6 0 .6 1 1 2.2 1.6.4.3.6.7.6 1V65c0 .5 0 .8-.5 1-1.4.4-2.2 1-2.8 1.5z" id="path27_1_"/><path class="st1" d="M44.8 40.2h-1.3c-1.5 0-2.8.8-4 1.7-1 1-2.2 2-2.5 3-.2 1 0 2 0 2.3v7c0 2.4-1 4-2.2 5.3-.6.6-1.8 1-3.2 1.6-.4.2-.6.5-.6 1V64c0 .4.2.7.6 1 1.2.3 2.3.8 3 1.4 1.3 1.7 2.2 3 2.2 5v8c0 3 .6 5 2.4 6 1.8 1.8 4 2 6.3 2h.7c.5 0 1 0 1-1v-2s-.3-.4-.7-.5l-2-1c-.8-1-1.3-2-1.3-4v-6c0-2.7-.4-4-1.2-5-.6-1-1.6-2-3-3-.6 0-.6-1 0-1.6 1.7-1 2.8-2.2 3.5-3.7.5-1 .7-2 .7-4v-6c0-2 .4-3.4 1.2-4 .4-.5 1-.8 2-1h1c.5 0 1-.5 1-1v-2c0-.6-.5-1-1-1h-2.6z" id="path29_1_"/><path class="st1" d="M61 72h-1.2c-1.3 0-1.8-.6-1.8-2V44c0-1.5-.5-2.6-1-3.2-.6-.6-1.6-.6-3-.6h-2.2c-.5 0-1 .4-1 1v30c0 2.3.6 3.8 1.5 5 1 1 2.3 1.4 4.4 1.4 1.3 0 2.7 0 4.2-.3V72z" id="path31_1_"/></svg>