<svg height="512" viewBox="0 0 512 512" width="512" xmlns="http://www.w3.org/2000/svg"><path d="M231.3 142.3c-4.5.5-3 4.7-5.5 4.7s-2-5.3 5.5-4.7zm13.6.7c4-1 4 3.3 6 2.5 2-.8 0-5.6-7-2.5zm151 290c-14 7-32 22-38 28.4-5 4.7-26 7-37 1-14-6.8-7-17.6-27-18-11-.3-21-.4-31-.3l-27 1c-31 1-34 21-54 20-14 0-31-11-60-17-21-4-41-5-45-14s5-19 6-28c1-12-9-28-2-34 6-5 19-1 27-6 9-5 12-9 12-20 3 11-1 21-8 25-5 3-13 4-20 4-5 0-9 0-10 2-2 3-1 8 1 14s5.2 10 5 18-9 17-7.7 23c.3 2 3 5 8.4 6 9.2 3 26 5 43 9 19 5 38 13 50 12 35.3-5 15-43 9.2-52-30-47-50-78-66-66-4 3-4-8-4-12 1-16 9-21 13.3-33.4 8.5-22.2 15.4-48.2 29-62 10-13 26-34 29-45.2-2.6-24-3.4-50-4-73-.2-24 3.6-45 30.8-59.3 6.7-3.4 15-5 24.4-5 16.5 0 34.4 4.6 46 13 18.5 13.6 30 42.5 28.6 63-1 16 2 33 7 50 6 20.6 16 35 31 51 18.7 20 33 59 37 83.4 4 23-1 37.5-6 38-7.5 1-12.2 25-36 24-15-1-16.4-10-20.5-17-6.7-12-13.5-8.4-16 4-1.4 6.7-.4 16 2 23 4 14.8 3 28.8 0 45.7-5 32.6 22.5 38.8 41 23 19-15.3 23-18 46-26 35-12 23-22 4-28.3-17-5.8-17.4-34-11.4-39.6 1 31 17 35 24 39 28 18-11 33-28 41.7zm-78-89.4c3-3.7 7-4 11-4.2 1-18.7 30-17.3 39-9.5 0-5-9-9-13-10 6-21 3-30-1-50-3-15-17-36-28-42 2 2 8 9 13 19 9 18 19 44 12 65-2 8-8 9-12 10-17 1-7-20-14-49-8-33-16-35-18-38-10-43-20-39-23-55-3-14 12-26-8-30-6-1-15-8-19-8-4-1-5.8-24 7.2-25s15.5 14 13 21c-3.6 6 0 8 6.7 6 5.5-2 2-16 3-18-3-20-11-23-20-24-32 2-17.5 38-21 34-4.3-5-18 0-18-4 .4-18.4-5.7-29-14-29-9.3-.4-13 12.7-13.7 20-.6 7 4 22 7.6 21 2.6-1 6-5.6 2-5.6-2 0-5-5-5.4-11 0-6 2-12 10-12 9 .3 9 18.6 8 19.3-3 2-6.8 6-7 7-3 5-9 6-11 8.4-4 4-5 9-2 10.7 11 6 7.3 13 22.2 14 10 .5 17-1.4 24-3.5 5-1.3 22-5 25-11 1-2.7 3-2.7 4.4-2 2 1.3 2.4 5.6-3 7-8.6 2.4-17 7-24 10-7.6 3-10 4-16.8 5.2-15.5 3-27-5.7-17 4.4 4 3 7 5.4 16 5 20-1 42-24.3 44-14 .4 2-6 5-11 7.6-18 9-31 27-43 21-10.7-6-21-32-21-20 .4 18-23.6 34-12.5 54.4-7 2-23.4 36-25.7 54-1 10.3 1 23-1.5 30-3 11-19-9-14-34 1-4 .6-5-1-3-6 11.4-3 27.4 2.6 39 2 5 7.4 7 11 11.3 8 9.6 40 33.5 46 39 7 7 5 23-10 24.6 8 14.5 15.5 16 15.4 39.6 8.7-4.4 5-15 1.6-21.3-2.6-5-6-7-5-8 .3-1 5-5 7.5-2 8 9 23 11 39 9s34.5-7 42.5-20c4-6 6.8-8 8-7 2 1 3 5 2.8 12 0 7.7-3 15.5-5 22-2 7-3 12 4 12 2-13 6-26 7-40 1-15-9.6-43 2-56.6zM220 132c-.6 3-.4 4.7 1.7 4.7.2 0 .6 0 .7-.8 1-6-2-11-3.3-11-2-1-2 3-1 3s2 1 2 3zm53-8c-3 .2-2 1.7-.6 2 2 .7 3.7 4 4 7.5.2.3 2.6-.6 2.6-1.3.2-5.7-4.7-8.4-6-8.3z"/></svg>