<svg id="Layer_1" viewBox="0 0 180.6 95.3" xmlns="http://www.w3.org/2000/svg"><style>.st0{fill:#00678F;} .st1{fill:#E38D1A;}</style><path class="st0" d="M1.7 85.3h5.8v-23l9 20c1 2.4 2.6 3.3 5.5 3.3 3 0 4.2-1 5.3-3.3l9-20v23H42v-23c0-2.2-.8-3.3-2.7-4-4.4-1.2-7.4 0-8.7 3L21.8 81l-8.6-19.8c-1.3-3-4.3-4-8.7-2.8-2 .6-2.8 1.6-2.8 4v23zM47 66.6h5.7v12.6c0 .7.2 2.3 3.4 2.4h13v-15h6V87c0 5-6 6.2-9 6.2H47v-4h18.5c3.7-.3 3.3-2.2 3.3-2.8V85H56.4c-5.8 0-9.5-2.5-9.5-5.4v-13zM172.3 52c-3.6-.2-6.3.2-8.7 1-.7.4-1.7.4-1.8 1.2.4.4.4 1 .7 1.4.5 1 1.5 2 2.3 2.7l3 2c1.6 1.2 3.6 1.8 5.3 3 1 .5 2 1.3 3 2 1 .4 1 1 2 1.2l-1-1.5-1-1.3c-1-1.7-3-3.3-4-4.5-1-1-4-2.3-5-4l3-.8c2-.4 3-.3 5-.7l2-.6s-1-2-2-2c-2-2-5-4-7-5-1-1-3-1-4-2-.3 0-1.2 0-1.5-1-.7-1-1.2-2-1.7-3l-4-8c-1-1-1-3-2-5-4.6-8-9.6-12-17.3-17-2-1-4-1-6-2h-4c-1 0-1.6-1-2-1-2.8-1-9.4-5-11 0-1.5 3 1.5 6 2.5 7s1.7 2 2.3 4l1 2.3 3 6c.3 1 1 2 1.5 3 .2.6 1 1 1 1.6-.7 1-.8 2.2-1 3.3-1.7 5-1 11 1.2 15 .7 1 2.4 3 4.7 2 2-1 2-3.3 2.4-5.6v-2l2 3.7c1 2.6 3.8 5 5.8 6 1.5 1 2 2.6 3.7 3l-1-1c-1-1-1.2-2-2-3-2-2.3-3.3-5-5-8l-2-4.2s0-1-.4-1.2c-1 1-2 1-2 3-1 2-1 4-1 6-2-.3-2-1.7-3-3-1.7-3-2-8.3-1-12 .6-.8 2-3.8 1-4.7 0-1-1-1.4-1.3-2-.7-1-1.3-2-1.7-3-1-2.5-1.5-5.3-2.7-8l-2-3c-1-1-2-2-3-3.5V6c0-.5.6-.6 1-1 .5-.4 2 0 3 .5 1.4.4 3 1 4 2 .6.3 1 1.2 2 1.4h1c1.4.3 3 0 4.4 1 2.7 1 5 2 6.7 3 6 4 11 9 14 15l1 3 3 6.4 3 6c1 1 3.8 1.6 5 2l3 1 4 3c1 1 3 2 3 3z"/><path class="st0" d="M126.8 13.2c-.8 0-1.3 0-1.8.2l1.5 2 1 2c.7-.5 1-1.3 1-2.3h-.5c-.3 0-1 0-1.2-1z"/><path class="st1" d="M79 85.3h17c2 0 3.7-.4 5.3-1 2.5-1.3 3.7-2.8 3.7-5V75c0-1.5-1.4-3-4-4-1.5-.6-3.3-1-5-1h-7c-2.5 0-3.6-.6-4-2.2v-3.6c.4-1 1-1.4 3-1.6h17.3v-4H89c-2.5 0-3.7.2-4.8.6-3.4 1-5 2.8-5 5.8v3c0 2.6 3 5 8 5.4h8.2c1.8.2 2.6.5 3.2 1.2.4.4.4.7.4 1V79c0 .6-.3 1-.8 1.6s-1.4.8-2.5.8H79v4zm62.3-6.8c0 4 3 6.2 9 6.6l1.7 1h15.2v-4H152c-3.5 0-4.8 0-4.8-3V59h-5.8v20zm-32.6.2V65c0-3.6 2.5-5.8 7.4-6.4h15c5 .7 8 2.8 8 6.3v13c0 3-1 4-3 5l6 5h-7l-4-4h-11c-1 0-2 0-3-1-4-1-5-3-5-6zm6.3-.3v.6c.4 1.6 2 2.5 4.2 2.5h5.3l-4.8-4.4h6.7l4.2 4c.8 0 1.3-1 1.5-2V65c0-1.5-1-2.4-4-2.4h-8c-2 0-4 1-4 3v13zm54.8 7h.8V82h1v-.7h-3v.7h1.2v3.3zm6.5 0h.8v-4h-1l-1 2.7-1-2h-1v4h1v-3l1 3h1l1-3v3z"/></svg>