<svg height="512" viewBox="0 0 512 512" width="512" xmlns="http://www.w3.org/2000/svg"><path fill="#7EBCF9" d="M7 12h499v486H7z"/><path fill="#30267E" d="M45 51h422v408H45z"/><path d="M376 214l-60 17-77-72-86 9-3 78-20 111 162 102h175V281M45 51h422v14H45z" opacity=".3"/><path d="M130 153.7c13.4-2.4 32-4.2 57.4-4.2 27.5 0 47.6 5.8 60.8 16.8 12.2 10 20 26.2 20 45.5 0 19.5-6 35.7-17.6 46.7-15 15-38.5 22-65 22-7 0-13.5-.3-18.4-1.2V357H130V153.6zm37.2 96c4.6 1.2 10.7 1.5 18.3 1.5 28 0 45.2-13.7 45.2-38 0-22.8-15.8-35-41.8-35-11 0-18 1-22 1.8v69.7zM285 322.4c8.7 5.2 25 10.7 38.3 10.7 16.5 0 23.8-6 23.8-16s-6-15-24-21.3c-29-10-41-26-41-43.4 0-26.3 22-46.7 56.8-46.7 16.6 0 31 4 39.5 8.8L371 241c-6.5-3.7-18.4-8.6-31.5-8.6-13.4 0-20.7 6.6-20.7 15.7 0 9.7 7 14 26 21 27 10 39.4 23.6 39.7 45.6 0 27-21 46.6-60.6 46.6-18 0-34.4-4-45.4-10.2l7.3-27.2z" fill="#7EBCF9"/></svg>