<svg id="Layer_3" viewBox="0 0 568 305" xmlns="http://www.w3.org/2000/svg"><style>.st0{fill:url(#SVGID_1_);} .st1{fill:#6181B6;} .st2{fill:#FFFFFF;}</style><radialGradient cx="147" cy="240" gradientTransform="matrix(1 0 0 -1 26.52 300.8)" gradientUnits="userSpaceOnUse" id="SVGID_1_" r="363.1"><stop offset="0" stop-color="#FFF"/><stop offset=".5" stop-color="#4C6B97"/><stop offset="1"/></radialGradient><ellipse class="st0" cx="284" cy="155.1" rx="276.5" ry="145.4"/><ellipse class="st1" cx="284" cy="155.1" rx="265.7" ry="134.6"/><path class="st2" d="M337.8 198.6l13.2-67.8c3-15.3.5-26.7-7.4-34C336 90 323 86.6 304 86.6h-22.7l6.5-33.6c.2-1.4 0-2.7-1-3.7-.7-1-2-1.6-3.2-1.6H252c-2 0-3.7 1.5-4 3.5l-14 72c-1.4-8-4.5-15-9.5-20.8-9.2-10.6-24-16-43.4-16h-61c-2 0-3 1.6-4 3.6L88 235.7c-.2 1.3 0 2.6 1 3.6.7 1 2 1.6 3.2 1.6H124c2 0 3.7-2 4-4l7-36h23c12.5 0 23-1.7 31-4 8.4-3 16-7.7 22.8-14 5.5-5 10-10.6 13.4-16.7l-5.6 29c-.2 1.4 0 2.7 1 3.7s2 2 3.2 2H255c2 0 4-1.3 4.3-3.3l15.5-80h21c9 0 12 1.7 12.4 2.5.7 1 2 3.4.5 11.3L297 197c0 1.3 0 2.6 1 3.6.8 1 2 1.6 3.3 1.6h32c2 0 4-1.5 4.3-3.6zm-146-56c-2 10.2-5.7 17.4-11 21.6-5.6 4.2-14.3 6.3-26 6.3h-14.2l10.2-52.4H169c13.4 0 18.8 3 21 6 3 4 3.6 10 1.8 19zm280.7-40.2c-9.2-10.6-24-16-43.4-16h-61c-2 0-3 1.6-4 3.6l-28 145.8c0 1.3 0 2.6 1 3.6s2 1.6 4 1.6h31c2 0 4-1.5 4-3.5l7-35.3h23c12.8 0 23-1.3 31-4 8.7-2.7 16-7.3 23-13.6 5.6-5.2 10-11 13.8-17.3 3.5-6.3 6-13.3 7.5-20.8 3-18.6 0-33.4-9-44zm-33 40.2c-2 10.2-5.6 17.4-11 21.6-5.5 4.2-14.2 6.3-26 6.3h-14l10-52.4H417c13.4 0 18.8 3 21 6 3 4 3.6 10 1.8 19z"/><path d="M169 113.8c12 0 20 2.2 24 6.7s5 12 3 23c-2.2 11.2-6.4 19.2-12.7 24-6.3 5-15.8 7.3-28.6 7.3h-19.3l12-61H169zM91.7 236.6h31.8l7.5-38.8h27.2c12 0 22-1.3 29.6-3.8 7.8-2.5 14.8-6.7 21-12.7 5.4-5 9.7-10.3 13-16.2 3.3-5 5.6-12 7-19 3.4-17 .8-30-7.6-40S199.4 91 181 91h-61L91.7 237zM252.2 52h31.5l-7.5 39h28c17.8 0 30 3 36.6 9 6.7 6.3 8.7 16.2 6 30l-13.2 67.8h-32l12.5-64.5c2-7.3 1-12.3-1-15-2-2.7-7-4-16-4h-25l-16 83.5h-32L252 52zm164.6 61.8c12 0 20 2.2 24 6.7s5 12 3 23c-2.2 11.2-6.4 19.2-12.7 24-6 5-15 7.3-28 7.3h-19l12-61h21zm-77.3 122.8h31.8l7.5-38.8H406c12 0 22-1.3 29.6-3.8 7.8-2.5 14.8-6.7 21-12.7 5.4-5 9.7-10.3 13-16.2 3.3-5 5.6-12 7-19 3.4-17 .8-30-7.6-40s-21.8-15-40.2-15h-61l-28.3 146z"/></svg>