<svg xmlns="http://www.w3.org/2000/svg" id="Layer_1" viewBox="0 0 128 128">
  <style>
    .st0{fill:#C1272D;} .st1{fill:#EFCCA3;} .st2{fill:#ED1C24;} .st3{fill:#CCAC8D;} .st4{fill:#FFFFFF;} .st5{fill:#FF931E;} .st6{fill:#FFB81E;} .st7{fill:#56332B;} .st8{fill:#442823;} .st9{fill:#7F4A41;} .st10{fill:#331712;} .st11{fill:#FFCC66;} .st12{fill:#CCCCCC;} .st13{fill:#B3B3B3;} .st14{fill:#989898;} .st15{fill:#323232;} .st16{fill:#1E1E1E;} .st17{fill:#4C4C4C;} .st18{fill:#E6E6E6;} .st19{fill:#606060;}
  </style>
  <path d="M107.4 51c-.2-4.5.4-8.4-1.6-11.7C101 31 89 26.3 65 26.3v.7h-.5.5v-.7c-24 0-36.6 4.8-41.4 13-2 3.5-1.7 7.3-2 11.7-.2 3.5-1.8 7.2-1 11.2.7 5.2 1 10.4 1.8 15.2.6 4 6 7.2 6.5 11 1 10 12 14.8 36 14.8v.8h-1v-.8c24 0 34-4.7 35-15 .2-3.7 5.2-7 6-10.8 1-4.8 1-10 2-15.2.4-4-1-7.8-1-11.3z" class="st1"/>
  <path d="M64.6 54.5c4.3 0 7.3 2.8 10 5.3 3.4 3 9 5 11.3 7.4 2 2.5 5 5 6 9 1 3.8 1 8.8 1 10 0 1.4 0 1 2 0 4.4-2.2 10-8.4 10-8.4-1 4-6 7.4-6.6 11C99 99.2 89 104 64.2 104h.8" class="st3"/>
  <path d="M80.4 46.7c1 3 4 13.6-2 10 0 0 2.5 1.6 4 7.3 1.8 5.7 6 6.4 6 6.4s6.6 1.3 11.6-3c4.2-3.6 5-10 3-15-1.7-4.7-5-6.2-9.6-7.2-4.7-1-14-2-13 1.5z" class="st3"/>
  <circle cx="92.3" cy="58.1" r="8.8"/>
  <circle cx="90" cy="54.2" r="2.3" class="st4"/>
  <path d="M79 57.7s7.8 5.4 12 10.7c4.4 5.3 4.3 6.3 4.3 6.3l-3 1.4s-4.5-8-10-11c-5.4-3-6-5-6-5l2.7-2z" class="st1"/>
  <path d="M65 54.5c-4.4 0-7.6 2.8-10.5 5.3-3.3 3-9 5-11.4 7.4-2 2.5-5 5-6 9-1 3.8-2 8.8-2 9.8 0 1.4 1 1.5-2 0-4-2-10-8.4-10-8.4 1 4 6 7.4 7 11C30 99.2 40 104 64.8 104h.2" class="st3"/>
  <path d="M88 71.4C83.4 65.4 75.7 60 65 60h-.2C54 60 46.4 65.5 41.6 71.4c-5 6-4.6 8.5-4.6 14.3 0 21 7.4 15 12.3 17.6 5 2.5 10.2 1.7 15.5 1.7 5.5 0 10.6.7 15.6-1.8S92.7 107 92.7 86c0-6 .4-8.5-4.6-14.6z" class="st7"/>
  <path d="M64.4 65.2s-.7 9.7-2 11.6l2.5-.6-1-11z" class="st8"/>
  <path d="M65 65.2s.8 9.7 2.2 11.6l-2.6-.6.5-11z" class="st8"/>
  <path d="M56.7 63c-1-2.4 2.6-6 8.3-6.2 5.7 0 9.3 3.7 8.3 6-1 2.5-4.6 3.2-8.3 3.3-3.6 0-7.3 0-8.3-3z" class="st7"/>
  <path d="M65 65.2c0-.4 3.4-.5 5.2-1.7 0 0-3.7 1.2-4.5.7-.8-.4-1-1.6-1-1.6s-.3 1.2-1 1.6c-.6.4-4.8-.7-4.8-.7s5 1.5 5 1.7v2-2z"/>
  <path d="M65.2 78.6c1.7 0 4.7 1.2 7.4 3C70 79 67 77 65.2 77c-1.8 0-5.6 2.2-8.3 5.4 2-2.2 6-3.6 8-3.6z" class="st9"/>
  <path d="M64.5 96.3c-3.8 0-7.5-1.2-11-2-.6-.3-1.3.2-2 0-6.3-2-11.4-5.4-14.5-9.7v1c0 21 7.4 15 12.3 17.6 5 2.5 10.2 1.7 15.5 1.7 5.5 0 10.6 0 15.6-2s12.3 3 12.3-18v-2c-2.7 5-8 9-14.7 11-.6 0-2-1-2.6-1-3.6 1-6.8 2.3-11 2.3z" class="st8"/>
  <path d="M55 85s-2.5 7.5-.8 10.8l-2.3-1s1-7.6 3-9.8zm19.8 0s2.5 7.5.8 10.8l2.3-1s-2-7.6-4-9.8z" class="st8"/>
  <path d="M48.6 46.7c-1 3-4 13.6 2 10 0 0-2.5 1.6-4 7.3s-6 6.4-6 6.4-6.6 1.3-11.6-3c-4.2-3.6-5-10-3-15s5-6.2 9.6-7.2c4.7-1 14-2 13 1.5z" class="st3"/>
  <path d="M65 76.8c2.6 0 11 5.8 11 13v-.5C76 82 69.4 76 65 76c-4.5 0-11.3 6-11.3 13.3v.4c0-7 8.5-13 11.2-13z"/>
  <ellipse cx="66.7" cy="61.5" transform="rotate(-14.465 66.712 61.468)" class="st10" rx=".8" ry="1.5"/>
  <ellipse cx="62.4" cy="61.5" transform="rotate(17.235 62.37 61.462)" class="st10" rx=".8" ry="1.5"/>
  <circle cx="37.2" cy="58.1" r="8.8"/>
  <circle cx="39.5" cy="54.2" r="2.3" class="st4"/>
  <path d="M67.5 58.2s-2.3 1-3 1c-.5 0-2.8-1-2.8-1h5.8z" class="st9"/>
  <path d="M50 57.7S42 63 37.8 68.4c-4.3 5.3-4.2 6.3-4.2 6.3l3 1.4s4.5-8 10-11 6-5 6-5L50 58z" class="st1"/>
  <path d="M32.7 41.7S30 49 24 52.2c0 0 9.4-1 8.7-10.5zm63 0s2.8 7.4 8.8 10.5c0 0-9.4-1-8.7-10.5zm-17 13.8s-6-6.2-13.8-6.4c-1 0 0 0 0 0-8 1-14 7-14 7 7-5 13-4 14-4 0 0 6 0 13 5zm-7-13s-3-4.2-7-4.3h.3c-3 0-7 4.3-7 4.3 3.5-3.3 7-3.2 7-3.2s3.3 0 6.8 3.2zM37.3 73.2s-4.7 2.3-8 1H29c-3-1.8-4.5-7-4.5-7s3 9 12.7 6zm54.8 0s5 2.3 8 1c4-1.8 5-7 5-7s-3 9-12 6z" class="st3"/>
  <path d="M42.6 41.2c2.6-.5 7-.6 10.3.5 4 1.5 0 7 1 7.3 1 .3 2-3.8 10-3.4 8 .4 9 4 10 3.4s-1-10 11-7.8c0 0-13-3.4-12 5.8 0 0-8-5.6-18-.6 0 0 2.3-8.6-14-5.2zm44.4 0h-.2zm0 0zM39 29S28.4 42.4 26.8 47.6c-1.6 5.3-2.8 27-4.2 30l-5-21.3 9-22.3L39 29zm51 0s10.7 13.5 12.3 18.7c1.6 5.3 2.8 27 4.2 30l5-21.3-9.2-22.3L90 29z" class="st3"/>
  <path d="M89.4 29s11.6 9.6 15 20.8c3.4 11.2 2 24.8 4.6 26.5 3.7 2.4 8-12 9.3-13.4 2.2-3 9.5-9 10-10s-14.8-18-21.5-21c-8-4-18-4-17.4-4z" class="st7"/>
  <path d="M99.3 35s13.7 17.3 13.5 39l5.5-11.2s-5-14.3-19-28z" class="st8"/>
  <path d="M39 29s-11.5 9.6-15 20.8-2 24.8-4.5 26.5c-3.7 2.4-8-12-9.3-13.4C8 60 .7 54 .2 53S15 35.2 21.7 32c8-4 18-4.2 17.4-3.4z" class="st7"/>
  <path d="M29.2 35S15.5 52.3 15.7 74l-5.4-11s4.8-14.3 19-28z" class="st8"/>
  <path d="M21.8 74.6s1 5.4 2.6 7 .5-1.2.5-1.2-2-1-2-7.8-2 2-2 2zm85.2 0s-1 5.4-2.5 7-.5-1.2-.5-1.2 1.7-1 1.4-7.8 1.7 2 1.7 2z" class="st3"/>
  <circle cx="54.5" cy="70.5" r=".8" class="st8"/>
  <circle cx="49.9" cy="75.3" r=".8" class="st8"/>
  <circle cx="48.4" cy="70.5" r=".8" class="st8"/>
  <circle cx="74" cy="70.5" r=".8" class="st8"/>
  <circle cx="78.6" cy="75.3" r=".8" class="st8"/>
  <circle cx="80.1" cy="70.5" r=".8" class="st8"/>
</svg>
