<svg baseProfile="tiny" height="512" viewBox="0 0 512 512" width="512" xmlns="http://www.w3.org/2000/svg"><path d="M253.8 1.8c-20.7 0-40.4 1.8-57.8 5-51.2 9-60.5 28-60.5 62.8v46h121V131H90c-35 0-65.8 21.3-75.4 61.5-11 46-11.6 74.8 0 123 8.6 35.7 29 61.3 64.2 61.3h41.6v-55.3c0-40 34.6-75.2 75.6-75.2h120.8c33.7 0 60.5-27.6 60.5-61.4V69.2c0-32.8-27.7-57.4-60.5-63-20.8-3.3-42.3-5-63-4.8zm-65.4 37C201 39 211 49.3 211 62s-10 23-22.6 23c-12.6 0-22.7-10.3-22.7-23 0-12.8 10-23 22.7-23z"/><path d="M392.4 131v54c0 41.6-35.3 76.7-75.6 76.7H196c-33 0-60.5 28.3-60.5 61.4v115c0 33 28.5 52.6 60.5 62 38.3 11 75 13.3 120.8 0 30.5-9 60.5-26.6 60.5-61.5v-46H256.5V377h181.3c35 0 48.2-24.7 60.5-61.5 12.6-38 12-74.3 0-123-8.7-35-25.3-61.2-60.5-61.2h-45.4zm-68 291.8c12.6 0 22.7 10.2 22.7 23 0 12.7-10 23-22.2 23s-22.7-10.3-22.7-23c0-12.8 10-23 22.7-23z"/></svg>