<svg id="Lager_1" viewBox="0 0 128 128" xmlns="http://www.w3.org/2000/svg"><style>.st0{fill:#CC6699;} .st1{fill:#FFFFFF;}</style><circle class="st0" cx="64" cy="64" r="50"/><path class="st1" d="M91 41.8c-.7-2.4-2.4-4.4-5-5.8-5-2.7-13.3-2.8-20.8 0-4.5 1.5-13 5-19.4 11-6.4 6-7.4 11.3-7 13.4 1.2 5.8 7.3 10 12 13.3 1.4 1 2.6 1.7 3.5 2.5-2.7 1.4-10 5.5-12 9.8-1.5 3.4-.8 6-.2 7 1 1.3 2 2.3 3 2.6 1 .3 2 .4 3 .4 5 0 9-2.3 11-6.2 3-4 3-9 2-12.3 2-.4 4-.4 6-.2 4 .5 6 2 7 3.2 1 1.3 1 2.6 1 3.4 0 1-1 2-2 2 0 0-1 0-1 1h2s4-2 4.7-5.8c0-2.3-1-4.5-2.5-6.3-2-2.3-5.3-3.5-9-3.4-3 0-5 .3-6.3 1-1.5-1.7-3.4-3-5-4.5-4-3-8-6-7.6-10 .5-5.6 5.8-11 16-16 9-4.5 16-4.5 20-3 1.8.4 3 1 3 2 1 1.8.8 4-.6 6.4-2.3 4-8 9-17 10-5.4.2-7.7-2-7.8-2-.7-1-1-1-1.8-1s0 1.5 0 2c.5 1 2 3 5 4 2.4 1 8 1.2 15.6-1.6C87 57 93 48 91.8 41zM56.3 84.4c0 .2 0 .4-.2.6v.6c0 1-1 1.8-2 2.6-2 2.5-5 3.2-6 2.6v-1c0-1 1-3.5 3-5.6 3-2.6 6-4.5 7-5 .6 2 0 3.6 0 5.2z"/></svg>