<svg height="32" version="1" viewBox="0 0 32 32" width="32" xmlns="http://www.w3.org/2000/svg"><path d="M16 0C7.2 0 0 7.2 0 16s7.2 16 16 16 16-7.2 16-16S24.8 0 16 0zM1.6 16c0-2 .5-4 1.3-6l6.3 19c-4.8-2.4-8-7.3-8-13zM16 30.4c-1.4 0-2.8-.2-4-.6l4.3-12.5 4.4 12v.3c-1.4.5-3 .8-4.7.8zm2-21l1.6-.3c.8 0 .7-1 0-1H12c-1 0-1 1-.3 1l1.5.7 2.3 6-3.2 9.5-5-15.6c1 0 1.5-.2 1.5-.2.8 0 .7-1 0-1H4C6.6 4.4 11 2 16 2c3.7 0 7.2 1.4 9.7 3.8h-.2C24 5.6 23 6.6 23 8c0 1 .8 2 1.5 3.3.6 1 1.2 2.2 1.2 4 0 1.2-.5 2.6-1 4.6L23 24.2l-5-15zM28.6 9c1 2 1.8 4.5 1.8 7 0 5.3-3 10-7.2 12.4l4.4-12.7c.8-2 1-3.7 1-5V9z" fill="#21759B"/></svg>