<svg height="56.3" width="56.3" xmlns="http://www.w3.org/2000/svg"><defs><clipPath id="a"><path d="M0 0v45h45V0H0"/></clipPath></defs><g clip-path="url(#a)" transform="matrix(1.25 0 0 -1.25 0 56.25)"><path d="M9.3 6v33c0 .8.7 1.5 1.6 1.5H24L35.7 29V6c0-.8-.7-1.5-1.6-1.5H11c-1 0-1.7.7-1.7 1.5z" fill="#2b2b2b" fill-rule="evenodd"/><path d="M24.2 40.5L35.7 29h-10c-.8 0-1.5.8-1.5 1.6v10z" fill="#525252" fill-rule="evenodd"/><path d="M15 11l1.5-2.3h-.7l-1 1.8-1.2-1.8h-.8l1.5 2.2-1.4 2h.7l1-1.7 1 1.8h.7L15 11zM20.6 13V8.8H20v2h-2.4v-2H17V13h.6v-1.8H20v2h.6zM24.2 13v-.5H23V8.7h-.6v3.8H21v.6h3.2zM29 13l.4-4.3h-.6l-.3 3.4-1.3-3.4h-.4L25.5 12 25 8.8h-.6L25 13h.7L27 9.8l1.3 3.4h.7zM32.4 9.2v-.5h-2.2V13h.6V9.3h1.6z" fill="#e6e6e6"/></g></svg>